<svg id="Capa_1" data-name="Capa 1" xmlns="http://www.w3.org/2000/svg" viewBox="0 0 782.06 1145.69"><defs><style>.cls-1{fill:#edb200;stroke:#edb200;stroke-miterlimit:10;stroke-width:1px;}</style></defs><title>Isotipo</title><path class="cls-1" d="M1799.5,1564a82.8,82.8,0,0,1,12.25,13.16c9,12.15,12.24,23.71,15.81,37,3,11.29,4.91,18.3,5.35,28.4a90.62,90.62,0,0,1-7.33,41.9c-5.49,12.34-12.26,27.6-29.89,36.06-2.21,1.07-23.75,11-45.92,1.38-18.12-7.85-24.7-23.58-27.23-29.62-1.63-3.9-6.15-15.89-2-43.52,3.36-22.2,10.5-42.33,20.46-62.25,12.18-24.33,16.19-23.57,37.62-59.23,16.73-27.82,25.17-42.09,29.23-59.68,5.91-25.6,1.85-46.39-.59-58.2-11.76-56.95-53.6-93.53-71-107.18a151.76,151.76,0,0,1,23.81,28.14c4.35,6.65,26.12,41.13,24,90.41-.42,9.6-.85,19.31-4.84,31.86-4.1,12.88-11.85,28.45-43.85,61.16-4.31,4.4-10,10-30.22,28.27-5.25,4.74-11.49,10.32-19,16.94-41.79,37.15-45.49,39.39-55.33,51-10.8,12.7-24.83,29.49-34.69,55.13a156.73,156.73,0,0,0-10.52,60.14c.48,18.89,1.15,44.77,19.48,69.75,18.1,24.66,43.18,34.47,55.73,39.38a158.54,158.54,0,0,0,71.24,9.67c14.11-1.28,42.38-4.18,69.61-23.07,22.8-15.83,33.19-34.77,44.22-54.88,6.44-11.73,17.25-31.85,21.56-60,2.48-16.24,7.31-47.85-9.36-82.43C1841.25,1588.62,1812.07,1570.71,1799.5,1564Z" transform="translate(-1141.13 -983.26)"/><path class="cls-1" d="M1377.11,1803.34s0-.11,0-.15c-2.94-40.29,4.31-71.45,10.92-91.37,7.88-23.86,18-41.14,35.51-71.2a565.39,565.39,0,0,1,43.5-65.14c11-14.14,26.8-34.34,51.22-57.51,6.73-6.38,12.33-11.29,17.3-15.43,6.63,5.14,7.66,8.23,19.12,16,5.43,3.7,10,8.31,15.66,11.8,2.59,1.61,6.92,4.15,8.07,8.62a6.38,6.38,0,0,1,0,4.38c-2,4.43-10.16,3.38-19.69,7.23-4.25,1.73-5,2.88-12.22,7.83a226.54,226.54,0,0,1-23.61,14c-2.56,1.84-15.85,11.51-23.67,21.89a51.6,51.6,0,0,0-6.38,11.42,15.9,15.9,0,0,0-1.74,7.41,9.43,9.43,0,0,0,1.73,5.73,9.93,9.93,0,0,0,6.12,3.82c4.75.72,8.7-2.89,10-4.1,4.76-4.35,5.1-9.23,6.56-14.36,3.59-12.62,12.38-21,15.64-24.12,7.75-7.4,16.12-10.82,22.46-13.43a97.34,97.34,0,0,1,29.71-7q-2.55,6.38-5.11,12.73a39.75,39.75,0,0,1-1.92,12.27c-.38,1.15-1.21,3.09-2.88,7-4.08,9.45-4.92,10.59-5.94,11.61-1.59,1.59-1.6.9-8.62,4.93-9,5.18-11.33,7.66-11.67,10.18a3.29,3.29,0,0,0,.66,2.76c.66.69,1.81,1.09,4.45,1,4.08-.14,5.61-1.24,10.14-2.09.36-.06,6.22-1.14,6.52-.36.22.57-2.44,1.85-6.77,3.92a53.54,53.54,0,0,1-7.17,3.14c-4.76,1.45-7.13.9-8,2.47s1,2.91,0,4.38c-1.11,1.64-3.89.58-6.26,2.34-2,1.48-2.25,3.89-2.39,5.23-.41,3.67,1.62,4.84,1.54,8.4,0,.75-.15,2.05-2.15,6.05a80.84,80.84,0,0,1-7.42,11.66c-4.54,6.3-6.83,9.47-7.91,10-5,2.59-9,.34-12.84,3.59-.86.74-1.76,2.42-3.55,5.8-2.9,5.46-2.51,6.07-4.36,8.61-1.49,2-3.39,4.64-7.12,6a16.4,16.4,0,0,1-8.07.72,15.47,15.47,0,0,1-6.25-2c-3-1.86-2.42-3.27-5.77-6a32,32,0,0,0-6.2-3.51,73.78,73.78,0,0,0-7-3,138.44,138.44,0,0,0-14.54-1c-5.87-.09-9.44.23-10.36-1.37-.77-1.37.91-3.2,2.63-5.58,3.89-5.38,2.28-5.69,6.76-13.84a75.63,75.63,0,0,1,11.61-16.44c9.5-10.08,9.54-10.11,9.54-10.11,3.58-3.57,5.55-5.27,4.93-6.71-.8-1.86-5.48-2.2-8.81-1.73a20.1,20.1,0,0,0-11,5.79c-13.51,13-19.21,21.43-19.21,21.43-8.55,12.69-12.82,19-17.48,27.74a235.38,235.38,0,0,0-14,31.59c-3.63,10.13-7.22,20.16-9.29,34a154.69,154.69,0,0,0-.42,39.22,169.75,169.75,0,0,0,9.93,40.57c4.57,12.15,10.39,22.13,21.83,41.59,12.18,20.68,19,32.32,30.73,48a312.79,312.79,0,0,0,62.46,64.19c9.55,7.34,16.78,12,26.81,18.53,10.87,7,16.89,10.41,23.46,13.48,4.69,2.19,8.73,3.8,11.58,4.88a2.17,2.17,0,0,1,.7,1.25C1478,1985.92,1403.8,1903.33,1377.11,1803.34Z" transform="translate(-1141.13 -983.26)"/><path class="cls-1" d="M1720.55,2015.7a237,237,0,0,1-46.43-4.5c-4.52-.88-23.2-4.68-49.26-15.32-7.38-3-38.91-16.18-74.63-42.26a374.88,374.88,0,0,1-89-93,289.86,289.86,0,0,1-20.91-35.58,277.39,277.39,0,0,1-11.38-26.72c-5-13.55-2.07-8.54-9.16-30.35a38.87,38.87,0,0,1-2.4-16c.34-4.25.76-8.71,4.55-12.74,4.72-5,11.41-5.94,12.74-6.1a23.88,23.88,0,0,1,9.55.88,30,30,0,0,1,13.24,8c17.82,17.53,21.69,23.52,21.69,23.53,4.72,7.3,14.43,19.8,33.85,44.8,19.87,25.58,41.65,49.4,41.65,49.4a196.21,196.21,0,0,0,34.19,31.31,117.26,117.26,0,0,0,27.51,15,99.69,99.69,0,0,0,32.85,7.1c13.44.48,23.38-2.07,32.86-4.59a152.9,152.9,0,0,0,41.45-17.87,83.08,83.08,0,0,0,5.65,18.72,84.65,84.65,0,0,0,12.84,21.31c6.59,7.92,10.28,9.32,12.23,15.62,1.68,5.41-.28,6.78.08,13.42.47,8.92,4.35,12.56,12.65,28.75,2.14,4.17,5.31,10.6,8.76,18.77l-29.3,6.86A229.48,229.48,0,0,1,1720.55,2015.7Z" transform="translate(-1141.13 -983.26)"/><path class="cls-1" d="M1504.52,2123.92c163.06,22.82,320.22-42.21,415.27-157-73.89,58.22-170.74,87.71-270,73.82a342.56,342.56,0,0,1-70.76-17.67,1.65,1.65,0,0,1-.17,1.07,2.61,2.61,0,0,1-3.2.93c-5.34-2-13.06-5.14-22.07-9.43-17.12-8.16-28-15.4-44.25-25.83-36.93-23.64-31.64-18.7-42.48-26.54-24.71-17.87-40.57-35.14-51.3-47a360.84,360.84,0,0,1-32.87-41.92,336,336,0,0,1-28.78-52.52,377.09,377.09,0,0,1-19.8-59c-4.41-18-6.42-32.16-8.48-46.76-2.84-20-4.58-32.33-4.73-49.68a277.41,277.41,0,0,1,3.77-47.88,218,218,0,0,1,9.67-39.33,209.75,209.75,0,0,1,17.1-36.7c7.77-13.21,12-20.32,20.57-28.46,11.74-11.1,23.78-16.61,33.13-20.89,9-4.14,22.42-10.13,41.36-12.31a128.91,128.91,0,0,1,58.07,6.83,91.16,91.16,0,0,1,28,12.7c1.11.76,2.08,1.48,3,2.15,10.8-9,18.65-14.28,28.8-23,1.16-1,5.91-5.21,11.47-10.49s25.32-24.39,49.63-56c6.09-7.91,13.78-17.94,23-32.1,10.2-15.56,20.28-30.83,29.13-52.09a248.28,248.28,0,0,0,15.12-51.24c22.43-124.38-54.31-242.63-179.08-293.36,29.89,51.69,42.13,112.16,30.93,174.2-14.41,79.9-64.87,146.71-134.1,189.24l0,0c66.59-133.92-103.45-237-103.45-237,122.57,132.83,7.93,281.44-26.2,320.07a407.81,407.81,0,0,0-45.24,47.7c-44.2,52.47-75.3,115.53-87.92,185.47C1107.87,1884.84,1267.62,2090.78,1504.52,2123.92Zm144.31-800c3.1.43,6.23.91,9.32,1.41,1,.14,2.12.33,3.15.54-.54-.07-1.08-.18-1.58-.25a5.23,5.23,0,0,1-.77-.15c-.66-.09-1.31-.18-2-.31-.88-.15-1.77-.28-2.7-.41Q1651.57,1324.32,1648.83,1323.92Z" transform="translate(-1141.13 -983.26)"/><path class="cls-1" d="M1728.89,1372.32s62,64.66,121.5,0C1850.39,1372.32,1792.61,1397.72,1728.89,1372.32Z" transform="translate(-1141.13 -983.26)"/></svg>